<svg width="24" height="26" viewBox="0 0 24 26" fill="none" xmlns="http://www.w3.org/2000/svg">
<path d="M22.6799 8.07225L12.6215 14.1073C12.5194 14.1686 12.4581 14.2809 12.4581 14.4034V25.6464C12.4581 25.9119 12.744 26.0753 12.9687 25.9425L23.0271 20.1321C23.1292 20.0708 23.2007 19.9585 23.2007 19.836V8.36838C23.1905 8.10288 22.9046 7.9395 22.6799 8.07225ZM0.52079 8.07225C0.296136 7.9395 0 8.10288 0 8.36838V19.836C0 19.9585 0.0612695 20.0708 0.173597 20.1321L10.232 25.9425C10.4567 26.0753 10.7426 25.9119 10.7426 25.6464V14.4034C10.7426 14.2809 10.6813 14.1686 10.5792 14.1073L0.52079 8.07225ZM6.65795 18.4881L6.14737 18.2123V19.9279C6.14737 20.1628 5.96356 20.2444 5.72869 20.1219L4.43182 19.4275C4.19696 19.305 4.01315 19.0191 4.01315 18.7842V17.0686L3.50257 16.7929C3.14517 16.5989 2.95115 16.0781 3.18601 15.9352L4.75859 14.9651C4.92198 14.8629 5.21812 15.0263 5.39171 15.302L6.96429 17.9673C7.20937 18.3553 7.01535 18.6821 6.65795 18.4881Z" fill="#193762"/>
<path d="M15.5326 2.22102L11.7645 0.0459521C11.6624 -0.0153174 11.5297 -0.0153174 11.4276 0.0459521L1.24662 5.91761C1.02196 6.05036 1.02196 6.37713 1.24662 6.50988L5.13723 8.83812C5.24955 8.89939 5.3823 8.89939 5.48442 8.83812L15.5428 2.80308C15.7573 2.67033 15.7573 2.34356 15.5326 2.22102ZM22.3233 5.93803L20.6078 2.2006C20.5261 2.01679 20.2912 1.94531 20.1176 2.04742L9.93667 8.15394C9.7937 8.24585 9.73244 8.42966 9.80392 8.58283L11.4378 12.3611C11.5195 12.5551 11.7543 12.6266 11.9279 12.5143L22.1906 6.35671C22.3437 6.27501 22.3948 6.09121 22.3233 5.93803Z" fill="#193762"/>
</svg>
