<svg width="25" height="23" viewBox="0 0 25 23" fill="none" xmlns="http://www.w3.org/2000/svg">
<path d="M24.5567 21.1204L23.4288 17.7462C23.3636 17.5504 23.3822 17.3453 23.4754 17.1682C24.3237 15.5277 24.6685 13.5889 24.305 11.5475C23.7457 8.41562 21.4527 5.815 18.4793 4.81763C19.2436 6.67255 19.4766 8.73254 19.0944 10.7739C18.3115 14.9218 14.9931 18.2215 10.8172 18.9672C10.2766 19.0605 9.73594 19.1071 9.19531 19.1257C10.463 20.4959 12.1501 21.4653 14.033 21.8009C16.0651 22.1644 17.9852 21.8289 19.6258 20.9899C19.8029 20.8967 20.0079 20.8781 20.2037 20.9433L23.5873 22.0712C24.1932 22.2763 24.7524 21.7077 24.5567 21.1204Z" fill="#193762"/>
<path d="M7.25442 0.15699C3.74032 0.809476 0.925307 3.66177 0.291463 7.18519C-0.0720642 9.22654 0.272821 11.1654 1.12105 12.8059C1.21426 12.983 1.23291 13.1881 1.16766 13.3838L0.0397904 16.7581C-0.155955 17.3546 0.403318 17.9139 0.999876 17.7182L4.38348 16.5903C4.5699 16.5251 4.78429 16.5437 4.9614 16.6369C6.59261 17.4665 8.5221 17.8114 10.5541 17.4479C14.0682 16.814 16.9112 14.0083 17.573 10.5035C18.7288 4.31426 13.4251 -0.98952 7.25442 0.15699ZM9.49151 11.5289H5.11986C4.69108 11.5289 4.33687 11.184 4.33687 10.7459C4.33687 10.3171 4.68176 9.96292 5.11986 9.96292H9.49151C9.92029 9.96292 10.2745 10.3078 10.2745 10.7459C10.2745 11.1747 9.92029 11.5289 9.49151 11.5289ZM12.6141 8.40627H5.11986C4.69108 8.40627 4.33687 8.06139 4.33687 7.62329C4.33687 7.19451 4.68176 6.84031 5.11986 6.84031H12.6141C13.0429 6.84031 13.3971 7.18519 13.3971 7.62329C13.3971 8.05207 13.0429 8.40627 12.6141 8.40627Z" fill="#193762"/>
</svg>
