<svg width="25" height="25" viewBox="0 0 25 25" fill="none" xmlns="http://www.w3.org/2000/svg">
<path d="M19.5442 1.70602C19.203 0.682406 18.254 0 17.1771 0H7.8153C6.73838 0 5.78941 0.682406 5.4482 1.70602L3.74219 6.78142H6.00266L7.4741 2.38842C7.52741 2.23915 7.65536 2.14318 7.8153 2.14318H17.1771C17.3263 2.14318 17.465 2.23915 17.5183 2.38842L18.9791 6.78142H21.2395L19.5442 1.70602Z" fill="#193762"/>
<path d="M24.2788 8.92328H0.714394C0.319878 8.92328 0 9.24316 0 9.63767V13.2096C0 13.6042 0.319878 13.924 0.714394 13.924H1.94059L3.39071 23.4244C3.49733 24.1175 4.09444 24.64 4.79817 24.64H20.195C20.8987 24.64 21.4958 24.1282 21.6024 23.4244L23.0526 13.924H24.2788C24.6733 13.924 24.9932 13.6042 24.9932 13.2096V9.63767C24.9932 9.24316 24.6733 8.92328 24.2788 8.92328ZM8.56207 20.7055C8.56207 21.2919 8.08226 21.7717 7.49581 21.7717C6.90937 21.7717 6.42955 21.2919 6.42955 20.7055V16.0672C6.42955 15.4808 6.90937 15.001 7.49581 15.001C8.08226 15.001 8.56207 15.4808 8.56207 16.0672V20.7055ZM13.5628 20.7055C13.5628 21.2919 13.083 21.7717 12.4966 21.7717C11.9101 21.7717 11.4303 21.2919 11.4303 20.7055V16.0672C11.4303 15.4808 11.9101 15.001 12.4966 15.001C13.083 15.001 13.5628 15.4808 13.5628 16.0672V20.7055ZM18.5636 20.7055C18.5636 21.2919 18.0838 21.7717 17.4973 21.7717C16.9109 21.7717 16.4311 21.2919 16.4311 20.7055V16.0672C16.4311 15.4808 16.9109 15.001 17.4973 15.001C18.0838 15.001 18.5636 15.4808 18.5636 16.0672V20.7055Z" fill="#193762"/>
</svg>
