<svg width="396" height="73" viewBox="0 0 396 73" fill="none" xmlns="http://www.w3.org/2000/svg">
<g clip-path="url(#clip0_2677_593)">
<path d="M25.3171 17.7009L18.1764 35.1434L11.0357 17.7009H0V45.092H7.91972L7.78989 25.7115L15.5798 45.092H18.1764H20.773L28.5629 25.7115L28.4331 45.092H36.3528V17.7009H25.3171Z" fill="#193762"/>
<path d="M162.029 17.7009L154.758 35.1433L147.618 17.7009H136.582V45.092H144.502L144.372 25.7115L152.292 45.092H154.758H157.355L165.145 25.7115V45.092H172.935V17.7009H162.029Z" fill="#193762"/>
<path d="M264.337 17.7009L257.196 35.1434L250.055 17.7009H239.02V45.092H246.939L246.809 25.7115L254.729 45.092H257.196H259.793L267.582 25.7115V45.092H275.372V17.7009H264.337Z" fill="#193762"/>
<path d="M66.2133 45.092H40.1172V17.7009H66.2133V22.9982L48.0369 23.1274V28.2956H63.6167V33.4637H48.0369V39.9239H66.2133V45.092Z" fill="#193762"/>
<path d="M81.142 17.7009C73.0924 18.0885 70.1063 27.3912 70.1063 39.9239H67.25V45.0921H98.6692V17.7009H81.142ZM90.8793 39.9239H77.8962V36.6938C77.8962 28.9416 79.7138 23.2567 84.7772 22.9983H90.8793V39.9239Z" fill="#193762"/>
<path d="M131.129 45.2212H124.637V25.7115L112.952 45.2212H103.734V17.7009H110.356V38.6318L123.339 17.7009H131.129V45.2212Z" fill="#193762"/>
<path d="M184.23 45.2212H177.738V17.7009H184.23V28.4248H190.721L198.641 17.7009H205.003H206.821L197.213 30.8796L206.561 45.2212H205.003H198.381L191.241 34.2389L184.23 34.3681V45.2212Z" fill="#193762"/>
<path d="M221.36 17.7009C213.181 17.7009 206.43 23.9027 206.43 31.3965C206.43 38.8903 213.181 45.2213 221.36 45.2213C229.54 45.2213 236.291 39.0195 236.291 31.5257C236.291 24.0319 229.67 17.7009 221.36 17.7009ZM221.36 39.4071C216.816 39.4071 213.051 35.7894 213.051 31.3965C213.051 27.0036 216.816 23.3859 221.36 23.3859C225.904 23.3859 229.67 27.0036 229.67 31.3965C229.67 35.9186 225.904 39.4071 221.36 39.4071Z" fill="#193762"/>
<path d="M0.128906 51.423H301.727V52.715H0.128906" fill="#193762"/>
<path d="M1.21016 57H11.6702V71H8.91016V59.64H3.97016V71H1.21016V57ZM19.9766 60.72C21.3232 60.72 22.4699 61.2333 23.4166 62.26C24.3766 63.2867 24.8566 64.5333 24.8566 66C24.8566 67.4933 24.3766 68.7467 23.4166 69.76C22.4832 70.7733 21.3366 71.28 19.9766 71.28C18.5766 71.28 17.4966 70.7933 16.7366 69.82V75H14.1566V61H16.7366V62.18C17.4966 61.2067 18.5766 60.72 19.9766 60.72ZM17.5166 68.04C18.0366 68.56 18.6966 68.82 19.4966 68.82C20.2966 68.82 20.9566 68.56 21.4766 68.04C22.0099 67.5067 22.2766 66.8267 22.2766 66C22.2766 65.1733 22.0099 64.5 21.4766 63.98C20.9566 63.4467 20.2966 63.18 19.4966 63.18C18.6966 63.18 18.0366 63.4467 17.5166 63.98C16.9966 64.5 16.7366 65.1733 16.7366 66C16.7366 66.8267 16.9966 67.5067 17.5166 68.04ZM35.1961 69.76C34.1828 70.7733 32.9294 71.28 31.4361 71.28C29.9428 71.28 28.6894 70.7733 27.6761 69.76C26.6628 68.7467 26.1561 67.4933 26.1561 66C26.1561 64.52 26.6628 63.2733 27.6761 62.26C28.7028 61.2333 29.9561 60.72 31.4361 60.72C32.9161 60.72 34.1694 61.2333 35.1961 62.26C36.2228 63.2867 36.7361 64.5333 36.7361 66C36.7361 67.48 36.2228 68.7333 35.1961 69.76ZM29.4961 67.98C30.0161 68.5 30.6628 68.76 31.4361 68.76C32.2094 68.76 32.8561 68.5 33.3761 67.98C33.8961 67.46 34.1561 66.8 34.1561 66C34.1561 65.2 33.8961 64.54 33.3761 64.02C32.8561 63.5 32.2094 63.24 31.4361 63.24C30.6628 63.24 30.0161 63.5 29.4961 64.02C28.9894 64.5533 28.7361 65.2133 28.7361 66C28.7361 66.7867 28.9894 67.4467 29.4961 67.98ZM46.4111 61H48.9511V71H46.4511V65.16L43.9111 69.16H43.5911L41.0311 65.12V71H38.5511V61H41.0911L43.7511 65.2L46.4111 61ZM59.825 69.76C58.8117 70.7733 57.5583 71.28 56.065 71.28C54.5717 71.28 53.3183 70.7733 52.305 69.76C51.2917 68.7467 50.785 67.4933 50.785 66C50.785 64.52 51.2917 63.2733 52.305 62.26C53.3317 61.2333 54.585 60.72 56.065 60.72C57.545 60.72 58.7983 61.2333 59.825 62.26C60.8517 63.2867 61.365 64.5333 61.365 66C61.365 67.48 60.8517 68.7333 59.825 69.76ZM54.125 67.98C54.645 68.5 55.2917 68.76 56.065 68.76C56.8383 68.76 57.485 68.5 58.005 67.98C58.525 67.46 58.785 66.8 58.785 66C58.785 65.2 58.525 64.54 58.005 64.02C57.485 63.5 56.8383 63.24 56.065 63.24C55.2917 63.24 54.645 63.5 54.125 64.02C53.6183 64.5533 53.365 65.2133 53.365 66C53.365 66.7867 53.6183 67.4467 54.125 67.98Z" fill="#FF6A3D"/>
<path d="M301.598 52.069H302.506C303.026 52.069 303.415 51.6814 303.415 51.1646V49.0973C303.415 48.8389 303.545 48.5805 303.675 48.4513L304.194 47.8053C304.324 47.6761 304.454 47.4177 304.454 47.1593L304.714 39.4071C304.714 38.6319 304.973 37.8566 305.363 37.2106L307.18 34.2389V30.8796C307.18 30.492 307.18 30.2336 307.31 29.846L307.44 29.5876V28.554C307.44 28.2956 307.57 28.0372 307.7 27.7788L307.83 27.6496C307.959 27.3911 308.089 27.1327 308.089 26.8743V24.8071L308.998 0" stroke="#193762" stroke-miterlimit="10"/>
<path d="M314.709 49.6142V48.839C314.709 48.5806 314.579 48.3221 314.449 48.1929L313.93 47.5469C313.8 47.4177 313.67 47.1593 313.67 46.9009L313.41 39.1487C313.41 38.3735 313.151 37.5983 312.761 36.9522L310.944 33.9805V30.6213C310.944 30.2336 310.944 29.9752 310.814 29.5876L310.684 29.3292V28.2956C310.684 28.0372 310.554 27.7788 310.424 27.5204L310.294 27.3912C310.165 27.1328 310.035 26.8744 310.035 26.6159V24.5487L308.996 0.258423" stroke="#193762" stroke-miterlimit="10"/>
<path d="M335.742 52.3274C335.742 52.1982 336.262 52.7151 336.911 53.2319C337.56 53.7487 338.858 53.8779 338.988 52.9735C339.377 49.485 343.143 45.7381 348.076 45.6089C348.206 45.6089 348.076 44.7044 348.076 44.0584C348.076 43.9292 349.115 43.0248 349.764 41.9912C350.153 41.3451 350.024 38.5027 350.024 36.823C350.024 36.5646 351.062 36.3062 351.062 35.6602C351.062 33.9805 351.841 32.6885 353.529 31.5257V28.9416C353.529 28.8124 354.698 25.5823 354.698 25.5823" stroke="#193762" stroke-miterlimit="10"/>
<path d="M372.355 52.8442C371.836 54.3947 370.797 52.715 370.667 52.1982C369.758 48.9681 366.253 45.7381 361.709 45.6088C361.579 45.6088 361.709 44.7044 361.709 44.0584C361.709 43.9292 360.67 43.0248 360.021 41.9911C359.631 41.3451 359.761 38.5027 359.761 36.823C359.761 36.5646 358.723 36.3062 358.723 35.6602C358.723 33.9805 357.814 32.5593 356.256 31.5257V28.9416C356.256 28.8124 354.958 24.9363 354.958 24.9363L353.789 28.9416" stroke="#193762" stroke-miterlimit="10"/>
<path d="M314.708 49.2266C314.708 49.2266 314.578 53.1027 314.578 53.8779C314.968 57.8832 316.006 71.062 316.006 71.062C316.006 71.1912 316.266 71.1912 316.266 71.062L319.252 50.6478C319.252 50.3894 319.642 50.2602 319.771 50.5186L320.94 51.5523C321.329 51.9399 321.979 51.6815 322.108 51.1646L326.133 37.4691C326.263 37.2107 326.523 37.2107 326.652 37.4691L330.937 54.1363C331.067 54.5239 331.456 54.7824 331.846 54.7824L333.404 52.4567C333.663 52.0691 334.183 51.8107 334.702 51.8107L337.039 53.3611C337.299 53.4903 337.558 53.6195 337.818 53.6195" stroke="#193762" stroke-miterlimit="10"/>
<path d="M395.207 53.4903H378.718C378.199 53.4903 377.809 53.2319 377.42 52.8442L374.693 49.3558C374.564 49.2265 374.434 49.2265 374.434 49.3558L372.227 52.9735" stroke="#193762" stroke-miterlimit="10"/>
</g>
<defs>
<clipPath id="clip0_2677_593">
<rect width="395.207" height="73" fill="white"/>
</clipPath>
</defs>
</svg>
