<?xml version="1.0" encoding="utf-8"?><svg width="25" height="23" fill="none" xmlns="http://www.w3.org/2000/svg" viewBox="0 0 25 23"><path d="M24.557 21.12l-1.128-3.374a.733.733 0 01.046-.578c.849-1.64 1.194-3.58.83-5.62-.56-3.132-2.852-5.733-5.826-6.73.765 1.855.998 3.915.615 5.956-.783 4.148-4.1 7.447-8.277 8.193-.54.094-1.081.14-1.622.159 1.268 1.37 2.955 2.34 4.838 2.675 2.032.363 3.952.028 5.593-.811a.733.733 0 01.578-.047l3.383 1.128a.757.757 0 00.97-.95z" fill="#193762"/><path d="M7.254.157C3.74.809.925 3.662.291 7.185c-.363 2.042-.018 3.98.83 5.62a.733.733 0 01.047.579L.04 16.758a.759.759 0 00.96.96l3.383-1.128a.736.736 0 01.578.047 8.822 8.822 0 005.593.81c3.514-.633 6.357-3.439 7.019-6.943A8.809 8.809 0 007.254.157zm2.238 11.372H5.12a.782.782 0 01-.783-.783c0-.429.345-.783.783-.783h4.372c.428 0 .782.345.782.783a.788.788 0 01-.782.783zm3.122-3.123H5.12a.782.782 0 01-.783-.783c0-.428.345-.783.783-.783h7.494c.429 0 .783.345.783.783a.788.788 0 01-.783.783z" fill="#193762"/></svg>