<?xml version="1.0" encoding="utf-8"?><svg width="24" height="26" fill="none" xmlns="http://www.w3.org/2000/svg" viewBox="0 0 24 26"><path d="M22.68 8.072L12.62 14.107a.343.343 0 00-.163.296v11.243a.34.34 0 00.51.296l10.06-5.81a.352.352 0 00.173-.296V8.368c-.01-.265-.296-.429-.521-.296zm-22.16 0a.347.347 0 00-.52.296v11.468c0 .123.061.235.174.296l10.058 5.81a.34.34 0 00.51-.296V14.403a.343.343 0 00-.163-.296L.521 8.072zm6.138 10.416l-.51-.276v1.716c0 .235-.184.316-.42.194l-1.296-.695c-.235-.122-.419-.408-.419-.643V17.07l-.51-.276c-.358-.194-.552-.715-.317-.858l1.573-.97c.163-.102.46.061.633.337l1.572 2.665c.245.388.051.715-.306.521zM15.533 2.221L11.765.046a.332.332 0 00-.337 0L1.247 5.918a.344.344 0 000 .592l3.89 2.328a.35.35 0 00.347 0l10.059-6.035c.214-.133.214-.46-.01-.582zm6.79 3.717l-1.715-3.737a.35.35 0 00-.49-.154L9.937 8.154a.343.343 0 00-.133.429l1.634 3.778a.335.335 0 00.49.153L22.19 6.357a.317.317 0 00.132-.419z" fill="#193762"/></svg>