<?xml version="1.0" encoding="utf-8"?><svg width="396" height="73" fill="none" xmlns="http://www.w3.org/2000/svg" viewBox="0 0 396 73"><g clip-path="url(#hclip0_2677_593)"><path d="M25.317 17.7l-7.14 17.443-7.141-17.442H0v27.391h7.92l-.13-19.38 7.79 19.38h5.193l7.79-19.38-.13 19.38h7.92V17.701H25.317zM162.029 17.7l-7.271 17.443-7.14-17.442h-11.036v27.391h7.92l-.13-19.38 7.92 19.38H157.355l7.79-19.38v19.38h7.79V17.701h-10.906zM264.337 17.7l-7.141 17.443-7.141-17.442H239.02v27.391h7.919l-.13-19.38 7.92 19.38h5.064l7.789-19.38v19.38h7.79V17.701h-11.035zM66.213 45.092H40.117V17.701h26.096v5.297l-18.176.13v5.168h15.58v5.168h-15.58v6.46h18.176v5.168zM81.142 17.7c-8.05.389-11.036 9.691-11.036 22.224H67.25v5.168h31.42V17.701H81.141zm9.737 22.224H77.896v-3.23c0-7.752 1.818-13.437 6.881-13.696h6.102v16.926zM131.129 45.221h-6.492v-19.51l-11.685 19.51h-9.218v-27.52h6.622v20.93l12.983-20.93h7.79v27.52zM184.23 45.221h-6.492v-27.52h6.492v10.724h6.491l7.92-10.724h8.18l-9.608 13.179 9.348 14.341h-8.18l-7.14-10.982-7.011.13V45.22z" fill="#193762"/><path d="M221.36 17.7c-8.179 0-14.93 6.203-14.93 13.697 0 7.493 6.751 13.824 14.93 13.824 8.18 0 14.931-6.201 14.931-13.695 0-7.494-6.621-13.825-14.931-13.825zm0 21.707c-4.544 0-8.309-3.618-8.309-8.01 0-4.393 3.765-8.011 8.309-8.011 4.544 0 8.31 3.618 8.31 8.01 0 4.523-3.766 8.011-8.31 8.011zM.129 51.423h301.598v1.292H.129" fill="#193762"/><path d="M1.21 57h10.46v14H8.91V59.64H3.97V71H1.21V57zm18.767 3.72c1.346 0 2.493.513 3.44 1.54.96 1.027 1.44 2.273 1.44 3.74 0 1.493-.48 2.747-1.44 3.76-.934 1.013-2.08 1.52-3.44 1.52-1.4 0-2.48-.487-3.24-1.46V75h-2.58V61h2.58v1.18c.76-.973 1.84-1.46 3.24-1.46zm-2.46 7.32c.52.52 1.18.78 1.98.78s1.46-.26 1.98-.78c.533-.533.8-1.213.8-2.04s-.267-1.5-.8-2.02c-.52-.533-1.18-.8-1.98-.8s-1.46.267-1.98.8c-.52.52-.78 1.193-.78 2.02s.26 1.507.78 2.04zm17.68 1.72c-1.014 1.013-2.268 1.52-3.76 1.52-1.494 0-2.748-.507-3.76-1.52-1.014-1.013-1.52-2.267-1.52-3.76 0-1.48.506-2.727 1.52-3.74 1.026-1.027 2.28-1.54 3.76-1.54s2.732.513 3.76 1.54c1.026 1.027 1.54 2.273 1.54 3.74 0 1.48-.514 2.733-1.54 3.76zm-5.7-1.78c.52.52 1.166.78 1.94.78.772 0 1.42-.26 1.94-.78s.78-1.18.78-1.98-.26-1.46-.78-1.98-1.168-.78-1.94-.78c-.774 0-1.42.26-1.94.78-.508.533-.76 1.193-.76 1.98 0 .787.252 1.447.76 1.98zM46.41 61h2.54v10h-2.5v-5.84l-2.54 4h-.32l-2.56-4.04V71h-2.48V61h2.54l2.66 4.2 2.66-4.2zm13.414 8.76c-1.013 1.013-2.267 1.52-3.76 1.52-1.493 0-2.747-.507-3.76-1.52s-1.52-2.267-1.52-3.76c0-1.48.507-2.727 1.52-3.74 1.027-1.027 2.28-1.54 3.76-1.54s2.733.513 3.76 1.54c1.027 1.027 1.54 2.273 1.54 3.74 0 1.48-.513 2.733-1.54 3.76zm-5.7-1.78c.52.52 1.167.78 1.94.78.773 0 1.42-.26 1.94-.78s.78-1.18.78-1.98-.26-1.46-.78-1.98-1.167-.78-1.94-.78c-.773 0-1.42.26-1.94.78-.507.533-.76 1.193-.76 1.98 0 .787.253 1.447.76 1.98z" fill="#FF6A3D"/><path d="M301.598 52.069h.908c.52 0 .909-.388.909-.904v-2.068c0-.258.13-.517.26-.646l.519-.646c.13-.129.26-.387.26-.646l.26-7.752c0-.775.259-1.55.649-2.196l1.817-2.972v-3.36c0-.387 0-.645.13-1.033l.13-.258v-1.034c0-.258.13-.517.26-.775l.13-.13c.129-.258.259-.516.259-.775v-2.067L308.998 0M314.709 49.614v-.775a.984.984 0 00-.26-.646l-.519-.646a.984.984 0 01-.26-.646l-.26-7.752c0-.776-.259-1.55-.649-2.197l-1.817-2.971v-3.36c0-.387 0-.646-.13-1.033l-.13-.259v-1.033c0-.259-.13-.517-.26-.776l-.13-.129c-.129-.258-.259-.517-.259-.775v-2.067L308.996.259M335.742 52.327c0-.129.52.388 1.169.905s1.947.646 2.077-.258c.389-3.489 4.155-7.236 9.088-7.365.13 0 0-.905 0-1.55 0-.13 1.039-1.034 1.688-2.068.389-.646.26-3.488.26-5.168 0-.258 1.038-.517 1.038-1.163 0-1.68.779-2.971 2.467-4.134v-2.584c0-.13 1.169-3.36 1.169-3.36" stroke="#193762" stroke-miterlimit="10"/><path d="M372.355 52.844c-.519 1.55-1.558-.129-1.688-.646-.909-3.23-4.414-6.46-8.958-6.59-.13 0 0-.904 0-1.55 0-.129-1.039-1.033-1.688-2.067-.39-.646-.26-3.488-.26-5.168 0-.258-1.038-.517-1.038-1.163 0-1.68-.909-3.1-2.467-4.134v-2.584c0-.13-1.298-4.006-1.298-4.006l-1.169 4.006M314.708 49.227s-.13 3.876-.13 4.65c.39 4.006 1.428 17.185 1.428 17.185 0 .13.26.13.26 0l2.986-20.414c0-.259.39-.388.519-.13l1.169 1.034c.389.388 1.039.13 1.168-.387l4.025-13.696c.13-.258.39-.258.519 0l4.285 16.667c.13.388.519.646.909.646l1.558-2.325c.259-.388.779-.646 1.298-.646l2.337 1.55c.26.13.519.259.779.259" stroke="#193762" stroke-miterlimit="10"/><path d="M395.207 53.49h-16.489c-.519 0-.909-.258-1.298-.646l-2.727-3.488c-.129-.13-.259-.13-.259 0l-2.207 3.617" stroke="#193762" stroke-miterlimit="10"/></g><defs><clipPath id="hclip0_2677_593"><path fill="#fff" d="M0 0h395.207v73H0z"/></clipPath></defs></svg>