<?xml version="1.0" encoding="utf-8"?><svg viewBox="0 0 396 73" xmlns="http://www.w3.org/2000/svg" xmlns:xlink="http://www.w3.org/1999/xlink"><style>:root>svg{display:none}:root>svg:target{display:block}</style><svg fill="none" viewBox="0 0 24 26" id="advantage__icon__1" xmlns="http://www.w3.org/2000/svg"><path d="M22.68 8.072L12.62 14.107a.343.343 0 00-.163.296v11.243a.34.34 0 00.51.296l10.06-5.81a.352.352 0 00.173-.296V8.368c-.01-.265-.296-.429-.521-.296zm-22.16 0a.347.347 0 00-.52.296v11.468c0 .123.061.235.174.296l10.058 5.81a.34.34 0 00.51-.296V14.403a.343.343 0 00-.163-.296L.521 8.072zm6.138 10.416l-.51-.276v1.716c0 .235-.184.316-.42.194l-1.296-.695c-.235-.122-.419-.408-.419-.643V17.07l-.51-.276c-.358-.194-.552-.715-.317-.858l1.573-.97c.163-.102.46.061.633.337l1.572 2.665c.245.388.051.715-.306.521zM15.533 2.221L11.765.046a.332.332 0 00-.337 0L1.247 5.918a.344.344 0 000 .592l3.89 2.328a.35.35 0 00.347 0l10.059-6.035c.214-.133.214-.46-.01-.582zm6.79 3.717l-1.715-3.737a.35.35 0 00-.49-.154L9.937 8.154a.343.343 0 00-.133.429l1.634 3.778a.335.335 0 00.49.153L22.19 6.357a.317.317 0 00.132-.419z" fill="#193762"/></svg><svg fill="none" viewBox="0 0 25 23" id="advantage__icon__4" xmlns="http://www.w3.org/2000/svg"><path d="M24.557 21.12l-1.128-3.374a.733.733 0 01.046-.578c.849-1.64 1.194-3.58.83-5.62-.56-3.132-2.852-5.733-5.826-6.73.765 1.855.998 3.915.615 5.956-.783 4.148-4.1 7.447-8.277 8.193-.54.094-1.081.14-1.622.159 1.268 1.37 2.955 2.34 4.838 2.675 2.032.363 3.952.028 5.593-.811a.733.733 0 01.578-.047l3.383 1.128a.757.757 0 00.97-.95z" fill="#193762"/><path d="M7.254.157C3.74.809.925 3.662.291 7.185c-.363 2.042-.018 3.98.83 5.62a.733.733 0 01.047.579L.04 16.758a.759.759 0 00.96.96l3.383-1.128a.736.736 0 01.578.047 8.822 8.822 0 005.593.81c3.514-.633 6.357-3.439 7.019-6.943A8.809 8.809 0 007.254.157zm2.238 11.372H5.12a.782.782 0 01-.783-.783c0-.429.345-.783.783-.783h4.372c.428 0 .782.345.782.783a.788.788 0 01-.782.783zm3.122-3.123H5.12a.782.782 0 01-.783-.783c0-.428.345-.783.783-.783h7.494c.429 0 .783.345.783.783a.788.788 0 01-.783.783z" fill="#193762"/></svg><svg fill="none" viewBox="0 0 25 25" id="advantage__icon__5" xmlns="http://www.w3.org/2000/svg"><path d="M19.544 1.706A2.488 2.488 0 0017.177 0H7.815a2.488 2.488 0 00-2.367 1.706L3.742 6.781h2.26l1.472-4.393a.355.355 0 01.341-.245h9.362c.15 0 .288.096.341.245l1.461 4.393h2.26l-1.695-5.075zM24.279 8.923H.714A.714.714 0 000 9.638v3.572c0 .394.32.714.714.714h1.227l1.45 9.5a1.432 1.432 0 001.407 1.216h15.397c.704 0 1.3-.512 1.407-1.216l1.45-9.5h1.227c.394 0 .714-.32.714-.714V9.638a.714.714 0 00-.714-.715zM8.562 20.706a1.07 1.07 0 01-1.066 1.066 1.07 1.07 0 01-1.066-1.066v-4.639c0-.586.48-1.066 1.066-1.066.586 0 1.066.48 1.066 1.066v4.639zm5 0a1.07 1.07 0 01-1.065 1.066 1.07 1.07 0 01-1.067-1.066v-4.639c0-.586.48-1.066 1.067-1.066.586 0 1.066.48 1.066 1.066v4.639zm5.002 0a1.07 1.07 0 01-1.067 1.066 1.07 1.07 0 01-1.066-1.066v-4.639c0-.586.48-1.066 1.066-1.066.587 0 1.067.48 1.067 1.066v4.639z" fill="#193762"/></svg><svg fill="none" viewBox="0 0 14 14" id="btn-icon" xmlns="http://www.w3.org/2000/svg"><path d="M10.71 3.288l-7.424 7.424m1.65-7.424h5.774-5.774zm5.774 0v5.774-5.774z" stroke="#fff" stroke-width="2" stroke-linecap="round" stroke-linejoin="round"/></svg><svg fill="none" viewBox="0 0 21 21" id="btn-icon__2" xmlns="http://www.w3.org/2000/svg"><g clip-path="url(#eclip0_2677_672)"><path d="M15.759 10.363l-10.927-.135m6.404-4.158l4.523 4.293-4.523-4.293zm4.523 4.293l-3.976 4.189 3.976-4.189z" stroke="#fff" stroke-width="2" stroke-linecap="round" stroke-linejoin="round"/></g><defs><clipPath id="eclip0_2677_672"><path fill="#fff" transform="rotate(-46.49 11.831 5.093)" d="M0 0h14v15.119H0z"/></clipPath></defs></svg><svg fill="none" viewBox="0 0 396 73" id="logo" xmlns="http://www.w3.org/2000/svg"><g clip-path="url(#fclip0_2677_593)"><path d="M25.317 17.7l-7.14 17.443-7.141-17.442H0v27.391h7.92l-.13-19.38 7.79 19.38h5.193l7.79-19.38-.13 19.38h7.92V17.701H25.317zM162.029 17.7l-7.271 17.443-7.14-17.442h-11.036v27.391h7.92l-.13-19.38 7.92 19.38H157.355l7.79-19.38v19.38h7.79V17.701h-10.906zM264.337 17.7l-7.141 17.443-7.141-17.442H239.02v27.391h7.919l-.13-19.38 7.92 19.38h5.064l7.789-19.38v19.38h7.79V17.701h-11.035zM66.213 45.092H40.117V17.701h26.096v5.297l-18.176.13v5.168h15.58v5.168h-15.58v6.46h18.176v5.168zM81.142 17.7c-8.05.389-11.036 9.691-11.036 22.224H67.25v5.168h31.42V17.701H81.141zm9.737 22.224H77.896v-3.23c0-7.752 1.818-13.437 6.881-13.696h6.102v16.926zM131.129 45.221h-6.492v-19.51l-11.685 19.51h-9.218v-27.52h6.622v20.93l12.983-20.93h7.79v27.52zM184.23 45.221h-6.492v-27.52h6.492v10.724h6.491l7.92-10.724h8.18l-9.608 13.179 9.348 14.341h-8.18l-7.14-10.982-7.011.13V45.22z" fill="#193762"/><path d="M221.36 17.7c-8.179 0-14.93 6.203-14.93 13.697 0 7.493 6.751 13.824 14.93 13.824 8.18 0 14.931-6.201 14.931-13.695 0-7.494-6.621-13.825-14.931-13.825zm0 21.707c-4.544 0-8.309-3.618-8.309-8.01 0-4.393 3.765-8.011 8.309-8.011 4.544 0 8.31 3.618 8.31 8.01 0 4.523-3.766 8.011-8.31 8.011zM.129 51.423h301.598v1.292H.129" fill="#193762"/><path d="M1.21 57h10.46v14H8.91V59.64H3.97V71H1.21V57zm18.767 3.72c1.346 0 2.493.513 3.44 1.54.96 1.027 1.44 2.273 1.44 3.74 0 1.493-.48 2.747-1.44 3.76-.934 1.013-2.08 1.52-3.44 1.52-1.4 0-2.48-.487-3.24-1.46V75h-2.58V61h2.58v1.18c.76-.973 1.84-1.46 3.24-1.46zm-2.46 7.32c.52.52 1.18.78 1.98.78s1.46-.26 1.98-.78c.533-.533.8-1.213.8-2.04s-.267-1.5-.8-2.02c-.52-.533-1.18-.8-1.98-.8s-1.46.267-1.98.8c-.52.52-.78 1.193-.78 2.02s.26 1.507.78 2.04zm17.68 1.72c-1.014 1.013-2.268 1.52-3.76 1.52-1.494 0-2.748-.507-3.76-1.52-1.014-1.013-1.52-2.267-1.52-3.76 0-1.48.506-2.727 1.52-3.74 1.026-1.027 2.28-1.54 3.76-1.54s2.732.513 3.76 1.54c1.026 1.027 1.54 2.273 1.54 3.74 0 1.48-.514 2.733-1.54 3.76zm-5.7-1.78c.52.52 1.166.78 1.94.78.772 0 1.42-.26 1.94-.78s.78-1.18.78-1.98-.26-1.46-.78-1.98-1.168-.78-1.94-.78c-.774 0-1.42.26-1.94.78-.508.533-.76 1.193-.76 1.98 0 .787.252 1.447.76 1.98zM46.41 61h2.54v10h-2.5v-5.84l-2.54 4h-.32l-2.56-4.04V71h-2.48V61h2.54l2.66 4.2 2.66-4.2zm13.414 8.76c-1.013 1.013-2.267 1.52-3.76 1.52-1.493 0-2.747-.507-3.76-1.52s-1.52-2.267-1.52-3.76c0-1.48.507-2.727 1.52-3.74 1.027-1.027 2.28-1.54 3.76-1.54s2.733.513 3.76 1.54c1.027 1.027 1.54 2.273 1.54 3.74 0 1.48-.513 2.733-1.54 3.76zm-5.7-1.78c.52.52 1.167.78 1.94.78.773 0 1.42-.26 1.94-.78s.78-1.18.78-1.98-.26-1.46-.78-1.98-1.167-.78-1.94-.78c-.773 0-1.42.26-1.94.78-.507.533-.76 1.193-.76 1.98 0 .787.253 1.447.76 1.98z" fill="#FF6A3D"/><path d="M301.598 52.069h.908c.52 0 .909-.388.909-.904v-2.068c0-.258.13-.517.26-.646l.519-.646c.13-.129.26-.387.26-.646l.26-7.752c0-.775.259-1.55.649-2.196l1.817-2.972v-3.36c0-.387 0-.645.13-1.033l.13-.258v-1.034c0-.258.13-.517.26-.775l.13-.13c.129-.258.259-.516.259-.775v-2.067L308.998 0M314.709 49.614v-.775a.984.984 0 00-.26-.646l-.519-.646a.984.984 0 01-.26-.646l-.26-7.752c0-.776-.259-1.55-.649-2.197l-1.817-2.971v-3.36c0-.387 0-.646-.13-1.033l-.13-.259v-1.033c0-.259-.13-.517-.26-.776l-.13-.129c-.129-.258-.259-.517-.259-.775v-2.067L308.996.259M335.742 52.327c0-.129.52.388 1.169.905s1.947.646 2.077-.258c.389-3.489 4.155-7.236 9.088-7.365.13 0 0-.905 0-1.55 0-.13 1.039-1.034 1.688-2.068.389-.646.26-3.488.26-5.168 0-.258 1.038-.517 1.038-1.163 0-1.68.779-2.971 2.467-4.134v-2.584c0-.13 1.169-3.36 1.169-3.36" stroke="#193762" stroke-miterlimit="10"/><path d="M372.355 52.844c-.519 1.55-1.558-.129-1.688-.646-.909-3.23-4.414-6.46-8.958-6.59-.13 0 0-.904 0-1.55 0-.129-1.039-1.033-1.688-2.067-.39-.646-.26-3.488-.26-5.168 0-.258-1.038-.517-1.038-1.163 0-1.68-.909-3.1-2.467-4.134v-2.584c0-.13-1.298-4.006-1.298-4.006l-1.169 4.006M314.708 49.227s-.13 3.876-.13 4.65c.39 4.006 1.428 17.185 1.428 17.185 0 .13.26.13.26 0l2.986-20.414c0-.259.39-.388.519-.13l1.169 1.034c.389.388 1.039.13 1.168-.387l4.025-13.696c.13-.258.39-.258.519 0l4.285 16.667c.13.388.519.646.909.646l1.558-2.325c.259-.388.779-.646 1.298-.646l2.337 1.55c.26.13.519.259.779.259" stroke="#193762" stroke-miterlimit="10"/><path d="M395.207 53.49h-16.489c-.519 0-.909-.258-1.298-.646l-2.727-3.488c-.129-.13-.259-.13-.259 0l-2.207 3.617" stroke="#193762" stroke-miterlimit="10"/></g><defs><clipPath id="fclip0_2677_593"><path fill="#fff" d="M0 0h395.207v73H0z"/></clipPath></defs></svg></svg>